<svg width="419" height="783" viewBox="0 0 419 783" fill="none" xmlns="http://www.w3.org/2000/svg">
<path d="M0 783H375.897V-2.55108e-05H79.9999C35.8171 -2.55108e-05 0 35.8172 0 80V783Z" fill="#6070FF"/>
<rect width="74.9117" height="17.2916" transform="matrix(0.918907 -0.394475 0.392657 0.919685 310.742 50.6582)" fill="#7F8CFF"/>
<path d="M413.193 71.777C409.716 65.6578 404.835 60.4363 398.945 56.5355C393.055 52.6346 386.322 50.164 379.289 49.3236C372.257 48.4833 365.125 49.2968 358.468 51.6984C351.812 54.0999 345.82 58.022 340.977 63.147C336.134 68.2721 332.576 74.456 330.592 81.1981C328.607 87.9402 328.251 95.051 329.554 101.955C330.856 108.858 333.78 115.361 338.088 120.936C342.396 126.511 347.967 131.002 354.351 134.044L362.76 116.697C359.123 114.964 355.949 112.406 353.494 109.23C351.04 106.054 349.375 102.349 348.633 98.416C347.891 94.4829 348.093 90.4319 349.224 86.5909C350.355 82.75 352.381 79.227 355.141 76.3073C357.9 73.3875 361.313 71.1531 365.105 69.785C368.897 68.4168 372.961 67.9533 376.967 68.4321C380.973 68.9108 384.809 70.3183 388.165 72.5406C391.521 74.763 394.301 77.7376 396.282 81.2237L413.193 71.777Z" fill="white"/>
<ellipse cx="163.891" cy="65.8363" rx="10.5251" ry="10.5539" fill="#7F8CFF"/>
<rect width="76.432" height="13.6839" transform="matrix(0.800581 0.599225 0.597126 -0.802147 259.424 678.354)" fill="#7F8CFF"/>
<ellipse rx="15.6167" ry="15.6109" transform="matrix(0.655783 0.75495 -0.753172 0.657823 275.887 711.855)" fill="white"/>
</svg>
